<svg width="108" height="103" viewBox="0 0 108 103" fill="none" xmlns="http://www.w3.org/2000/svg">
<rect width="108" height="103" fill="#1E1E1E"/>
<rect width="112" height="103" fill="black"/>
<path d="M38.4678 55.1237L30.639 55.3531C29.533 55.4105 28.6172 55.0454 27.8916 54.2577C27.1643 53.4707 26.9299 52.6286 27.1885 51.7312L30.4466 40.4245C30.6879 39.5869 31.1491 38.8643 31.83 38.2565C32.511 37.6487 33.3501 37.2348 34.3474 37.0146L38.2613 36.1928C37.6195 39.7703 37.2998 42.9083 37.3019 45.6068C37.3013 48.3045 37.6899 51.4768 38.4678 55.1237ZM61.7471 14.4415C62.1025 14.2884 62.7749 14.0341 62.7749 14.0341C62.7749 14.0341 63.7075 13.8135 64.3226 13.8351C65.148 13.8642 65.6155 14.0434 66.3558 14.3626C67.7949 14.9831 68.951 16.5693 69.1685 16.8947C72.2747 20.7043 72.9553 22.1914 73.7425 27.0919C74.5278 31.9931 73.6735 37.886 71.7522 43.3938C70.5299 46.8979 68.7835 49.2001 67.4452 51.4786C66.108 53.7587 64.3232 56.1394 62.0906 58.6209C61.649 59.0731 61.1288 59.4283 60.5299 59.6863C59.9293 59.9451 59.2709 59.9668 58.5547 59.7514L44.8374 56.1906C44.1213 55.9752 43.8326 55.6326 43.4651 55.0826C43.0986 54.5342 42.8859 53.4297 42.7546 52.8051C42.2214 49.5243 41.9904 46.545 42.0616 43.8673C42.1321 41.1919 42.6328 38.239 43.5637 35.0085C44.9255 30.2824 47.2362 26.077 50.4956 22.3923C53.7561 18.7093 57.5066 16.059 61.7471 14.4415ZM64.464 62.9427C67.0519 60.3081 69.0731 57.8528 70.5274 55.5768C71.9806 53.2991 73.3862 50.4792 74.7441 47.1171L77.5312 50.0032C78.2526 50.7402 78.7454 51.5632 79.0096 52.4722C79.2726 53.3795 79.2835 54.252 79.0422 55.0895L75.7841 66.3963C75.5255 67.2936 74.8754 67.8619 73.8337 68.1012C72.7919 68.3404 71.8215 68.1298 70.9223 67.4693L64.464 62.9427Z" fill="url(#paint0_linear_0_1)"/>
<path d="M37.6481 69.1063C38.0434 66.4787 39.4423 64.7668 41.3743 63.4664C43.7928 61.8385 47.9621 62.07 50.4686 62.8239C52.9751 63.5778 55.1181 64.8596 56.4776 66.8937C57.837 68.9278 58.1707 70.4107 57.3311 72.8178C56.9001 74.3134 55.1481 76.6559 53.0394 78.5076C50.9289 80.3601 47.2434 82.3263 43.0481 84.8675C40.8697 80.4092 39.2803 78.6396 38.5031 75.9355C37.7258 73.2313 37.4354 70.5201 37.6481 69.1063Z" fill="url(#paint1_linear_0_1)"/>
<defs>
<linearGradient id="paint0_linear_0_1" x1="44.0327" y1="22.3082" x2="66.6059" y2="74.6984" gradientUnits="userSpaceOnUse">
<stop stop-color="#6956DE"/>
<stop offset="1" stop-color="#ED6F7E"/>
</linearGradient>
<linearGradient id="paint1_linear_0_1" x1="42.8296" y1="23.1066" x2="65.4029" y2="75.4968" gradientUnits="userSpaceOnUse">
<stop stop-color="#6956DE"/>
<stop offset="1" stop-color="#ED6F7E"/>
</linearGradient>
</defs>
</svg>
